<svg width="22" height="20" viewBox="0 0 22 20" fill="none" xmlns="http://www.w3.org/2000/svg">
<path d="M21.5429 15.3038L13.7714 1.52193C12.5227 -0.505962 9.47895 -0.508656 8.22864 1.52193L0.457483 15.3038C-0.818947 17.376 0.726425 20 3.2282 20H18.7715C21.2712 20 22.8193 17.3781 21.5429 15.3038ZM11 17.5129C10.2894 17.5129 9.71094 16.9548 9.71094 16.2693C9.71094 15.5838 10.2894 15.0257 11 15.0257C11.7106 15.0257 12.2891 15.5838 12.2891 16.2693C12.2891 16.9548 11.7106 17.5129 11 17.5129ZM12.2891 12.5386C12.2891 13.2241 11.7106 13.7822 11 13.7822C10.2894 13.7822 9.71094 13.2241 9.71094 12.5386V6.32074C9.71094 5.6352 10.2894 5.07717 11 5.07717C11.7106 5.07717 12.2891 5.6352 12.2891 6.32074V12.5386Z" fill="#FD6342"/>
</svg>
