<?xml version="1.0" encoding="UTF-8"?>
<svg width="14px" height="18px" viewBox="0 0 14 18" version="1.1" xmlns="http://www.w3.org/2000/svg" xmlns:xlink="http://www.w3.org/1999/xlink">
    <title>Slice 1</title>
    <g id="Page-1" stroke="none" stroke-width="1" fill="none" fill-rule="evenodd">
        <g id="Group">
            <g id="Vector" fill="#D9D9D9" fill-rule="nonzero">
                <path d="M1.15185201,18.06 C0.886632013,18.06 0.632272013,17.9546 0.444742013,17.7671 C0.257202013,17.5796 0.151852013,17.3252 0.151852013,17.06 L0.00184701315,2.4 C-0.0101939869,2.10234 0.0367300131,1.80525 0.139922013,1.52579 C0.243112013,1.24633 0.400532013,0.990038 0.603132013,0.77164 C0.805732013,0.553243 1.04951201,0.377054 1.32044201,0.253208 C1.59138201,0.129361 1.88412201,0.0603016 2.18185201,0.05 L11.771812,0 C12.069912,0.00520682 12.364112,0.0690924 12.637512,0.188008 C12.911012,0.306923 13.158312,0.478538 13.365412,0.69305 C13.572412,0.907563 13.735212,1.16077 13.844412,1.43821 C13.953712,1.71565 14.007112,2.01189 14.001812,2.31 L14.1418646,16.97 C14.143612,17.1452 14.099212,17.3178 14.013212,17.4705 C13.927212,17.6232 13.802612,17.7506 13.651812,17.84 C13.499812,17.9278 13.327412,17.974 13.151812,17.974 C12.976312,17.974 12.803912,17.9278 12.651812,17.84 L6.95185201,14.68 L1.66185201,17.91 C1.50520201,17.9975 1.33092201,18.0488 1.15185201,18.06 L1.15185201,18.06 Z M6.91185201,12.51 C7.08561201,12.5103 7.25687201,12.5514 7.41185201,12.63 L12.121812,15.24 L12.001812,2.29 C12.001812,2.09 11.871812,1.95 11.791812,1.96 L2.19185201,2.05 C2.11185201,2.05 2.00185201,2.18 2.00185201,2.38 L2.12185201,15.28 L6.40185201,12.65 C6.55729201,12.561 6.73275201,12.5128 6.91185201,12.51 L6.91185201,12.51 Z" id="Shape"></path>
            </g>
            <polygon id="Path-2" stroke="#FFFFFF" fill="#FFFFFF" points="2 2.5 2 2.75 2 15.25 7 12.5 12 15.25 12 2 2 2"></polygon>
        </g>
    </g>
</svg>