<svg width="20" height="17" viewBox="0 0 20 17" fill="none" xmlns="http://www.w3.org/2000/svg">
<path d="M18.334 6.49977H14.3423L10.6923 1.03311C10.534 0.799772 10.2673 0.683105 10.0007 0.683105C9.73398 0.683105 9.46732 0.799772 9.30898 1.04144L5.65898 6.49977H1.66732C1.20898 6.49977 0.833984 6.87477 0.833984 7.33311C0.833984 7.40811 0.842318 7.48311 0.867318 7.55811L2.98398 15.2831C3.17565 15.9831 3.81732 16.4998 4.58398 16.4998H15.4173C16.184 16.4998 16.8257 15.9831 17.0257 15.2831L19.1423 7.55811L19.1673 7.33311C19.1673 6.87477 18.7923 6.49977 18.334 6.49977ZM10.0007 2.99977L12.334 6.49977H7.66732L10.0007 2.99977ZM15.4173 14.8331L4.59232 14.8414L2.75898 8.16644H17.2507L15.4173 14.8331Z" fill="white"/>
</svg>
