<svg width="14" height="14" viewBox="0 0 14 14" fill="none" xmlns="http://www.w3.org/2000/svg">
<path d="M13.0002 3.00011H9.66683V1.88677C9.65119 1.45998 9.46697 1.05681 9.15454 0.765633C8.84212 0.474456 8.42699 0.319034 8.00016 0.333438H6.00016C5.57333 0.319034 5.1582 0.474456 4.84578 0.765633C4.53336 1.05681 4.34914 1.45998 4.3335 1.88677V3.00011H1.00016C0.823352 3.00011 0.653782 3.07034 0.528758 3.19537C0.403734 3.32039 0.333496 3.48996 0.333496 3.66677C0.333496 3.84358 0.403734 4.01315 0.528758 4.13818C0.653782 4.2632 0.823352 4.33344 1.00016 4.33344H1.66683V11.6668C1.66683 12.1972 1.87754 12.7059 2.25262 13.081C2.62769 13.4561 3.1364 13.6668 3.66683 13.6668H10.3335C10.8639 13.6668 11.3726 13.4561 11.7477 13.081C12.1228 12.7059 12.3335 12.1972 12.3335 11.6668V4.33344H13.0002C13.177 4.33344 13.3465 4.2632 13.4716 4.13818C13.5966 4.01315 13.6668 3.84358 13.6668 3.66677C13.6668 3.48996 13.5966 3.32039 13.4716 3.19537C13.3465 3.07034 13.177 3.00011 13.0002 3.00011ZM5.66683 1.88677C5.66683 1.78011 5.80683 1.66677 6.00016 1.66677H8.00016C8.1935 1.66677 8.3335 1.78011 8.3335 1.88677V3.00011H5.66683V1.88677ZM11.0002 11.6668C11.0002 11.8436 10.9299 12.0132 10.8049 12.1382C10.6799 12.2632 10.5103 12.3334 10.3335 12.3334H3.66683C3.49002 12.3334 3.32045 12.2632 3.19543 12.1382C3.0704 12.0132 3.00016 11.8436 3.00016 11.6668V4.33344H11.0002V11.6668Z" fill="#928F87"/>
</svg>
