<svg width="22" height="22" viewBox="0 0 22 22" fill="none" xmlns="http://www.w3.org/2000/svg">
<path fill-rule="evenodd" clip-rule="evenodd" d="M5.41519 0.833594C5.57243 0.957087 5.74902 1.12323 5.9522 1.32391C6.38748 1.75232 6.89247 2.4387 7.3258 3.09763C7.76398 3.76395 8.17001 4.46538 8.39758 4.9536L8.39773 4.95391L8.39787 4.95422C8.52687 5.23162 8.64313 5.48299 8.72485 5.7033C8.80785 5.92703 8.87682 6.17313 8.87726 6.44168C8.87819 7.00383 8.57307 7.43769 8.27917 7.83786C8.19473 7.95282 8.12299 8.04702 8.06115 8.12822C7.92787 8.30324 7.8405 8.41797 7.77054 8.55066C7.70231 8.6801 7.6824 8.77355 7.7147 8.92399C7.76126 9.14091 7.96372 9.61575 8.35683 10.2369C8.73702 10.8377 9.25755 11.5153 9.87948 12.1352C10.5013 12.7551 11.1681 13.2619 11.7569 13.6286C12.3636 14.0065 12.8308 14.2005 13.0539 14.2481C13.2092 14.2812 13.3062 14.2605 13.4359 14.1929C13.5727 14.1217 13.6945 14.0288 13.8837 13.8843C13.9581 13.8275 14.0429 13.7628 14.1432 13.6882L14.1433 13.6881L14.1509 13.6825C14.5525 13.3842 14.9986 13.0527 15.5641 13.0533C15.8435 13.0536 16.0942 13.1325 16.315 13.2226C16.526 13.3087 16.7683 13.4308 17.0342 13.5647L17.0564 13.576C17.5224 13.8109 18.2152 14.209 18.8859 14.6429C19.5448 15.0692 20.24 15.5668 20.6729 16.0029L20.6736 16.0036C20.8748 16.2068 21.0414 16.3834 21.1652 16.5406C21.285 16.6927 21.4165 16.8896 21.472 17.1344C21.5345 17.4102 21.4779 17.6396 21.4198 17.7987C21.3936 17.8705 21.3627 17.9393 21.3405 17.9886C21.3371 17.9963 21.3337 18.0038 21.3304 18.0111C21.3098 18.0568 21.2918 18.0967 21.2728 18.1423L21.2723 18.1434L21.2718 18.1445C21.0759 18.6091 20.8376 19.0547 20.5599 19.4755L20.5591 19.4768L20.5582 19.4781C20.0156 20.2933 19.5051 20.8259 18.7117 21.1955C18.2993 21.3875 17.7102 21.5815 16.7946 21.4673C15.914 21.3575 14.7683 20.9676 13.2046 20.0919L13.2042 20.0916C10.702 18.6883 8.96574 17.4784 6.72603 15.245C4.49291 13.0181 3.39527 11.5647 1.85765 8.77136C0.309712 5.95928 0.311929 4.22516 0.753985 3.28054C1.12515 2.48742 1.66311 1.97931 2.47559 1.43952L2.47719 1.43846L2.4788 1.4374C2.90011 1.16059 3.34589 0.922947 3.81054 0.727445L3.81208 0.7268L3.81361 0.726162C3.85959 0.707054 3.89981 0.689024 3.9458 0.66841C3.95301 0.665177 3.96036 0.661881 3.9679 0.658507C4.01732 0.636395 4.08622 0.605654 4.15792 0.579611C4.31684 0.521885 4.54582 0.465497 4.82108 0.527566C5.06582 0.582751 5.26271 0.713842 5.41519 0.833594ZM4.39086 2.11064C4.01171 2.27027 3.64793 2.46419 3.30405 2.68998C2.61768 3.14618 2.32344 3.46574 2.11258 3.91633C1.97245 4.21577 1.7131 5.39821 3.17172 8.04801C4.64067 10.7166 5.6524 12.056 7.78521 14.1828C9.91133 16.303 11.5322 17.4341 13.9376 18.7831C15.4095 19.6075 16.3638 19.902 16.9802 19.9789C17.5617 20.0514 17.8667 19.9343 18.0783 19.8358C18.5324 19.6242 18.8534 19.332 19.3088 18.648C19.5352 18.3048 19.7295 17.9414 19.8893 17.5626C19.9109 17.511 19.932 17.4634 19.9499 17.4236C19.88 17.3406 19.7728 17.2258 19.608 17.0593C19.2965 16.7455 18.7183 16.3209 18.0712 15.9023C17.4358 15.4913 16.7901 15.1216 16.3813 14.9154C16.0863 14.7668 15.8973 14.6723 15.7481 14.6114C15.603 14.5521 15.5608 14.5533 15.5625 14.5533C15.5761 14.5533 15.5297 14.5268 15.0379 14.8922C14.9876 14.9295 14.9333 14.9712 14.8759 15.0152C14.6567 15.1832 14.3914 15.3866 14.1285 15.5235C13.7356 15.728 13.2846 15.831 12.7411 15.7151C12.2653 15.6136 11.6237 15.3128 10.9638 14.9018C10.286 14.4796 9.52856 13.9034 8.82051 13.1976C8.1126 12.4919 7.5236 11.7253 7.08933 11.0391C6.668 10.3733 6.35107 9.71846 6.24811 9.23882C6.13087 8.6927 6.23776 8.24169 6.44363 7.85117C6.57629 7.5995 6.77461 7.33948 6.93783 7.12547C6.98586 7.06251 7.03084 7.00352 7.07023 6.94991C7.38551 6.52061 7.37812 6.45218 7.37731 6.44472C7.37728 6.44447 7.37726 6.44429 7.37726 6.44417C7.37724 6.42972 7.3739 6.37435 7.3185 6.22498C7.26183 6.07223 7.17362 5.87892 7.03782 5.58687C6.85236 5.18912 6.48882 4.55486 6.07252 3.92182C5.65139 3.28143 5.21703 2.70486 4.89964 2.39261L4.8991 2.39208L4.89856 2.39155C4.73109 2.22612 4.6159 2.11891 4.53275 2.04912C4.49234 2.06718 4.44365 2.08868 4.39086 2.11064Z" fill="#928F87"/>
</svg>
